# xmcd
#
# Track frame offsets:
# 150
# 4545
# 20604
# 42287
# 67665
# 88215
# 114561
# 139382
# 161267
# 183189
# 196917
# 215492
# 236059
# 257787
# 284751
#
# Disc length: 4141 seconds
#
#
# Revision: 0
# Processed by: cddbd v1.5.1PL2 Copyright (c) Steve Scherf et al.
# Submitted via: FreeRIP 2.944 
#
DISCID=d2102b0f
DTITLE=Trouble Men - Trouble Men On CD
DYEAR=2005
DGENRE=House
TTITLE0=Check In
TTITLE1=Underground
TTITLE2=In The Air featuring Colonel Abrams
TTITLE3=Crowd Control
TTITLE4=More Than Physical
TTITLE5=Wildpitch
TTITLE6=Legacy
TTITLE7=Pure energy
TTITLE8=Body and soul
TTITLE9=Do it
TTITLE10=Tune In A/D
TTITLE11=Party rockin'
TTITLE12=[Play] what You got
TTITLE13=Sunrise on Ocean Drive
TTITLE14=After The rain...
EXTD=
EXTT0=
EXTT1=
EXTT2=
EXTT3=
EXTT4=
EXTT5=
EXTT6=
EXTT7=
EXTT8=
EXTT9=
EXTT10=
EXTT11=
EXTT12=
EXTT13=
EXTT14=
PLAYORDER=
